<svg width="153" height="32" viewBox="0 0 153 32" fill="none" xmlns="http://www.w3.org/2000/svg">
<path d="M54.8655 26.0749C49.9324 26.0749 46.7784 22.972 46.7784 18.0668V8.02414H49.9417C50.2633 8.02414 50.5716 8.15187 50.799 8.37923C51.0264 8.60659 51.1541 8.91497 51.1541 9.2365V18.0621C51.1541 20.4776 52.6266 22.029 54.8702 22.029C57.1137 22.029 58.5862 20.4776 58.5862 18.0621V9.2365C58.5862 9.07729 58.6176 8.91965 58.6785 8.77256C58.7394 8.62547 58.8287 8.49181 58.9413 8.37923C59.0539 8.26665 59.1875 8.17736 59.3346 8.11643C59.4817 8.0555 59.6394 8.02414 59.7986 8.02414H62.9897V18.0668C62.9897 22.9116 59.7754 26.0749 54.8655 26.0749Z" fill="#082239"/>
<path d="M72.8116 26.0773C71.5875 26.0897 70.3831 25.7686 69.3277 25.1483V25.8357H65.2587V9.02056C65.2586 8.74012 65.3558 8.46833 65.5337 8.2515C65.7116 8.03468 65.9591 7.88622 66.2341 7.83142L69.3788 7.20898V13.3869C70.4187 12.6511 71.6631 12.2596 72.937 12.2675C73.8434 12.2757 74.7394 12.4624 75.5737 12.8169C76.408 13.1714 77.1643 13.6867 77.7995 14.3335C78.4346 14.9803 78.9361 15.7459 79.2754 16.5865C79.6147 17.4271 79.7851 18.3263 79.7768 19.2328C79.7686 20.1392 79.5819 21.0352 79.2274 21.8695C78.8729 22.7038 78.3576 23.4601 77.7108 24.0953C77.064 24.7304 76.2984 25.2319 75.4578 25.5712C74.6172 25.9105 73.718 26.0809 72.8116 26.0726V26.0773ZM69.3788 16.8475V21.553C70.1644 22.2439 71.1804 22.6151 72.2263 22.5935C72.6843 22.6104 73.141 22.5348 73.5692 22.3712C73.9973 22.2076 74.3881 21.9593 74.7181 21.6413C75.0481 21.3232 75.3106 20.9419 75.4899 20.5201C75.6692 20.0983 75.7616 19.6446 75.7616 19.1863C75.7616 18.728 75.6692 18.2743 75.4899 17.8525C75.3106 17.4307 75.0481 17.0494 74.7181 16.7314C74.3881 16.4133 73.9973 16.1651 73.5692 16.0014C73.141 15.8378 72.6843 15.7622 72.2263 15.7791C71.7047 15.7607 71.1845 15.8455 70.6958 16.0289C70.2072 16.2122 69.7596 16.4905 69.3788 16.8475Z" fill="#082239"/>
<path d="M88.5405 22.367C88.6926 22.1517 88.9169 21.9982 89.1726 21.9343C89.4284 21.8703 89.6985 21.9003 89.934 22.0186C91.0156 22.6394 92.236 22.9781 93.4829 23.0034C94.8299 23.0034 95.6939 22.5946 95.6939 21.935C95.6939 21.4287 95.2619 21.1221 94.3004 20.9689L91.6295 20.5601C88.9586 20.156 87.5093 18.7532 87.5093 16.5421C87.5093 13.8201 89.6971 12.1711 93.3064 12.1711C95.2957 12.172 97.2443 12.7356 98.9269 13.7969L97.5334 15.6781C97.3774 15.8887 97.1519 16.0374 96.8969 16.0977C96.6419 16.1581 96.3737 16.1263 96.1399 16.0079C95.1301 15.501 94.0181 15.2309 92.8883 15.2182C91.8199 15.2182 91.1325 15.5991 91.1325 16.1844C91.1325 16.7697 91.5645 17.0252 92.7071 17.2017L95.3781 17.6105C98.0211 17.9914 99.5215 19.4174 99.5215 21.5263C99.5215 24.1461 96.9527 26.0784 93.4829 26.0784C90.942 26.0784 88.7031 25.4699 87.1284 24.3226L88.5405 22.367Z" fill="#082239"/>
<path d="M111.45 21.8553L113.159 23.6112C112.455 24.3904 111.595 25.0127 110.635 25.4377C109.674 25.8626 108.635 26.0807 107.585 26.0777C105.737 26.0777 103.965 25.3436 102.658 24.0369C101.352 22.7302 100.618 20.958 100.618 19.1101C100.618 17.2621 101.352 15.4899 102.658 14.1832C103.965 12.8765 105.737 12.1425 107.585 12.1425C108.656 12.1333 109.717 12.3503 110.698 12.7793C111.68 13.2084 112.56 13.8398 113.28 14.6322L111.515 16.4113C111.321 16.6095 111.06 16.7279 110.783 16.7434C110.506 16.7589 110.234 16.6702 110.019 16.4949C109.37 15.9463 108.546 15.6481 107.697 15.6541C105.918 15.6541 104.571 17.1266 104.571 19.0868C104.571 21.0471 105.964 22.4917 107.822 22.4917C108.617 22.4991 109.39 22.2316 110.01 21.7345C110.225 21.5804 110.488 21.5079 110.752 21.53C111.016 21.5522 111.263 21.6675 111.45 21.8553Z" fill="#082239"/>
<path d="M120.73 12.119C124.822 12.119 128.027 15.1941 128.027 19.1099C128.027 23.0257 124.822 26.0775 120.73 26.0775C116.637 26.0775 113.432 23.0257 113.432 19.1099C113.432 15.1941 116.637 12.119 120.73 12.119ZM124.009 19.1099C123.985 18.4658 123.773 17.843 123.398 17.319C123.022 16.7949 122.501 16.3929 121.899 16.1628C121.297 15.9328 120.641 15.8851 120.012 16.0255C119.383 16.1659 118.809 16.4883 118.362 16.9524C117.915 17.4166 117.614 18.0021 117.497 18.636C117.381 19.2698 117.453 19.9239 117.706 20.5169C117.958 21.1099 118.379 21.6156 118.917 21.9708C119.455 22.326 120.085 22.5152 120.73 22.5147C121.169 22.5087 121.603 22.4156 122.007 22.2408C122.41 22.066 122.775 21.813 123.08 21.4964C123.385 21.1798 123.624 20.8058 123.783 20.3962C123.943 19.9866 124.02 19.5494 124.009 19.1099Z" fill="#082239"/>
<path d="M129.324 12.375H132.455C132.718 12.375 132.969 12.4793 133.155 12.6648C133.34 12.8504 133.445 13.102 133.445 13.3644V13.7221C133.869 13.1955 134.408 12.7727 135.021 12.4862C135.633 12.1996 136.303 12.0567 136.98 12.0685C137.517 12.0302 138.055 12.1446 138.531 12.3983V15.9843C137.916 15.7099 137.249 15.5705 136.575 15.5755C135.952 15.5709 135.339 15.725 134.792 16.0233C134.245 16.3215 133.783 16.7541 133.449 17.2802V25.8225H129.324V12.375Z" fill="#082239"/>
<path d="M146.444 26.0783C142.324 26.0783 139.124 23.0265 139.124 19.1107C139.116 18.1891 139.292 17.2752 139.642 16.4228C139.993 15.5704 140.51 14.7968 141.164 14.1475C141.818 13.4981 142.596 12.9863 143.451 12.6421C144.306 12.2978 145.221 12.1282 146.142 12.1431C150.081 12.1431 152.929 15.246 152.929 19.4916V20.5089H143.351C143.623 21.1566 144.084 21.7072 144.674 22.0885C145.264 22.4697 145.956 22.6639 146.658 22.6456C147.26 22.6555 147.858 22.5351 148.409 22.2926C148.733 22.1412 149.094 22.0865 149.448 22.1351C149.803 22.1838 150.135 22.3336 150.407 22.5666L152.074 24.0484C150.525 25.4176 148.511 26.1436 146.444 26.0783ZM143.267 17.6382H148.888C148.712 17.0243 148.341 16.4841 147.832 16.0988C147.323 15.7135 146.702 15.5039 146.063 15.5015C145.423 15.4817 144.795 15.6834 144.285 16.0727C143.776 16.4619 143.416 17.0148 143.267 17.6382Z" fill="#082239"/>
<path d="M81.1084 12.3831V25.7005H85.289V12.3831C84.6621 12.7712 83.9357 12.9682 83.1987 12.9498C82.4646 12.9454 81.7442 12.7501 81.1084 12.3831Z" fill="#082239"/>
<path d="M83.199 11.2091C84.492 11.2091 85.5401 10.1609 85.5401 8.86794C85.5401 7.57498 84.492 6.52682 83.199 6.52682C81.9061 6.52682 80.8579 7.57498 80.8579 8.86794C80.8579 10.1609 81.9061 11.2091 83.199 11.2091Z" fill="#082239"/>
<path d="M36.5985 0.0185807L32.1068 2.61053C31.4605 2.97493 30.9617 3.5534 30.6963 4.24619C30.4309 4.93897 30.4155 5.70266 30.6528 6.40556C31.6537 9.2643 31.6255 12.3827 30.5729 15.2229C29.5204 18.063 27.5097 20.4467 24.8876 21.9629C22.2655 23.479 19.1964 24.0324 16.2099 23.5277C13.2233 23.0229 10.5066 21.4917 8.52836 19.1981C8.03859 18.6355 7.36795 18.2614 6.63198 18.1401C5.896 18.0189 5.14078 18.1581 4.49643 18.5339L0 21.1304C1.36223 23.582 3.19878 25.738 5.40262 27.4726C7.60645 29.2072 10.1335 30.4859 12.8365 31.2341C15.5395 31.9823 18.3643 32.185 21.1464 31.8304C23.9286 31.4759 26.6123 30.5711 29.0412 29.169C31.4702 27.7668 33.5958 25.8952 35.2941 23.6632C36.9924 21.4313 38.2295 18.8836 38.9334 16.1688C39.6372 13.4539 39.7936 10.6261 39.3936 7.85016C38.9935 5.07422 38.045 2.40566 36.6032 0L36.5985 0.0185807Z" fill="url(#paint0_radial_1_64)"/>
<path d="M18.3877 15.6167C21.0814 15.6167 23.265 13.433 23.265 10.7393C23.265 8.04565 21.0814 5.862 18.3877 5.862C15.694 5.862 13.5104 8.04565 13.5104 10.7393C13.5104 13.433 15.694 15.6167 18.3877 15.6167Z" fill="url(#paint1_linear_1_64)"/>
<defs>
<radialGradient id="paint0_radial_1_64" cx="0" cy="0" r="1" gradientUnits="userSpaceOnUse" gradientTransform="translate(28.8413 28.1584) scale(27.039)">
<stop stop-color="#1E88E5"/>
<stop offset="0.7" stop-color="#0DCEB6"/>
<stop offset="1" stop-color="#07E5A6"/>
</radialGradient>
<linearGradient id="paint1_linear_1_64" x1="12.9437" y1="6.29864" x2="22.2338" y2="13.884" gradientUnits="userSpaceOnUse">
<stop stop-color="#1E88E5"/>
<stop offset="0.69" stop-color="#0DCEB6"/>
<stop offset="1" stop-color="#07E5A6"/>
</linearGradient>
</defs>
</svg>
